

The Woman He Loved (1988)  
http://www.imdb.com/title/tt0096460/

The saga of the romance between Edward, Prince of Wales, 
and American divorcee Wallis Warfield Simpson. 
This tale is from the viewpoint of the woman for whom the throne was abdicated.


Director: Charles Jarrott
Writers: William Luce
Stars: Anthony Andrews, Jane Seymour and Olivia de Havilland 
 

Format                                   : AVI
Format/Info                              : Audio Video Interleave
File size                                : 950 MiB
Duration                                 : 1h 39mn
Overall bit rate                         : 1 340 Kbps

Video
ID                                       : 0
Format                                   : MPEG-4 Visual
Format profile                           : Simple@L3
Format settings, BVOP                    : No
Format settings, QPel                    : No
Format settings, GMC                     : No warppoints
Format settings, Matrix                  : Default (H.263)
Codec ID                                 : XVID
Codec ID/Hint                            : XviD
Duration                                 : 1h 39mn
Bit rate                                 : 1 200 Kbps
Width                                    : 640 pixels
Height                                   : 480 pixels
Display aspect ratio                     : 4:3
Frame rate                               : 25.000 fps
Color space                              : YUV
Chroma subsampling                       : 4:2:0
Bit depth                                : 8 bits
Scan type                                : Progressive
Compression mode                         : Lossy
Bits/(Pixel*Frame)                       : 0.156
Stream size                              : 851 MiB (90%)
Writing library                          : Magic0432

Audio
ID                                       : 1
Format                                   : MPEG Audio
Format version                           : Version 1
Format profile                           : Layer 3
Mode                                     : Joint stereo
Mode extension                           : MS Stereo
Codec ID                                 : 55
Codec ID/Hint                            : MP3
Duration                                 : 1h 39mn
Bit rate mode                            : Constant
Bit rate                                 : 128 Kbps
Channel(s)                               : 2 channels
Sampling rate                            : 44.1 KHz
Compression mode                         : Lossy
Stream size                              : 90.8 MiB (10%)
Alignment                                : Aligned on interleaves
Interleave, duration                     : 26 ms (0.65 video frame)